<?xml version="1.0" encoding="UTF-8" standalone="no"?>
<svg
   xmlns:dc="http://purl.org/dc/elements/1.1/"
   xmlns:cc="http://creativecommons.org/ns#"
   xmlns:rdf="http://www.w3.org/1999/02/22-rdf-syntax-ns#"
   xmlns:svg="http://www.w3.org/2000/svg"
   xmlns="http://www.w3.org/2000/svg"
   xmlns:xlink="http://www.w3.org/1999/xlink"
   xmlns:sodipodi="http://sodipodi.sourceforge.net/DTD/sodipodi-0.dtd"
   xmlns:inkscape="http://www.inkscape.org/namespaces/inkscape"
   version="1.1"
   width="435"
   height="766"
   id="svg4136"
   inkscape:version="0.91 r13725"
   viewBox="0 0 435 766"
   sodipodi:docname="State school kalotsavam Logo Coreldraw.svg">
  <title
     id="title4268">Kerala school kalolsavam 2017 Kannur</title>
  <metadata
     id="metadata4260">
    <rdf:RDF>
      <cc:Work
         rdf:about="">
        <dc:format>image/svg+xml</dc:format>
        <dc:type
           rdf:resource="http://purl.org/dc/dcmitype/StillImage" />
        <dc:title>Kerala school kalolsavam 2017 Kannur</dc:title>
        <dc:subject>
          <rdf:Bag>
            <rdf:li>Kerala school kalolsavam 2017 Kannur</rdf:li>
          </rdf:Bag>
        </dc:subject>
      </cc:Work>
    </rdf:RDF>
  </metadata>
  <defs
     id="defs4258" />
  <sodipodi:namedview
     pagecolor="#ffffff"
     bordercolor="#666666"
     borderopacity="1"
     objecttolerance="10"
     gridtolerance="10"
     guidetolerance="10"
     inkscape:pageopacity="0"
     inkscape:pageshadow="2"
     inkscape:window-width="1366"
     inkscape:window-height="706"
     id="namedview4256"
     showgrid="false"
     inkscape:zoom="0.65442393"
     inkscape:cx="207.44693"
     inkscape:cy="380.80274"
     inkscape:window-x="-8"
     inkscape:window-y="-8"
     inkscape:window-maximized="1"
     inkscape:current-layer="svg4136" />
  <a
     id="a4199"
     xlink:href="http://www.keralas.info/festival/school_kalolsavam/2017/"
     target="blank"
     transform="translate(-102.17153,-21.998239)"
     sodipodi:insensitive="true">
    <g
       id="g4217">
      <path
         d="m 393.3533,368.1204 c 11.0274,4.0901 -8.5686,13.3384 -14.2315,18.2922 -32.2838,28.2408 52.2286,11.124 55.7776,11.5235 37.0626,4.1731 4.2861,50.9171 -29.8782,67.0764 -19.3852,9.1688 -64.5346,20.8823 -108.3773,15.9109 -216.1675,-24.5121 -76.2604,-176.9595 96.7094,-112.803 z"
         style="fill:#f6a143;fill-rule:evenodd"
         id="path4138"
         inkscape:connector-curvature="0" />
      <path
         d="m 422.3423,473.9403 -19.2936,3.4339 c 0,0 6.5978,41.0908 9.3835,75.0764 2.7857,33.9856 3.3428,33.9856 3.3428,33.9856 l 6.5673,-112.4959 z"
         style="fill:#009ee0;fill-rule:evenodd"
         id="path4140"
         inkscape:connector-curvature="0" />
      <path
         d="m 213.017,476.4219 19.2936,3.4339 c 0,0 -6.5978,41.0908 -9.3835,75.0764 -2.7857,33.9856 -3.3428,33.9856 -3.3428,33.9856 L 213.017,476.4219 Z"
         style="fill:#9ac105;fill-rule:evenodd"
         id="path4142"
         inkscape:connector-curvature="0" />
      <path
         d="m 295.0657,396.4245 c 30.6168,0 55.4457,12.4145 55.4457,27.7229 0,15.3084 -24.8289,27.7228 -55.4457,27.7228 -30.6168,0 -55.4457,-12.4144 -55.4457,-27.7228 0,-15.3084 24.8289,-27.7229 55.4457,-27.7229 z m 0.8283,2.8968 c 27.1129,0 49.1002,10.9936 49.1002,24.5502 0,13.5566 -21.9873,24.5501 -49.1002,24.5501 -27.113,0 -49.1003,-10.9935 -49.1003,-24.5501 0,-13.5566 21.9873,-24.5502 49.1003,-24.5502 z"
         style="fill:#ffffff;fill-rule:evenodd"
         id="path4144"
         inkscape:connector-curvature="0" />
      <path
         d="m 295.5018,400.3557 a 45.0089,22.5044 0 0 1 45.0089,22.5045 45.0089,22.5044 0 1 1 -45.0089,-22.5045 z"
         style="fill:#000200;fill-rule:evenodd"
         id="path4146"
         inkscape:connector-curvature="0" />
      <path
         d="m 286.6126,107.106 a 19.2607,19.2607 0 0 1 19.2606,19.2607 19.2607,19.2607 0 1 1 -19.2606,-19.2607 z"
         style="fill:#000200;fill-rule:evenodd"
         id="path4148"
         inkscape:connector-curvature="0" />
      <path
         d="m 234.0112,105.1247 c 29.1565,69.9474 153.0404,83.052 152.1303,87.0439 -5.5753,24.4521 -129.9229,184.8995 -30.3559,275.6724 -0.0212,-0.014 -0.0415,-0.0278 -0.0634,-0.0418 -31.8517,-20.3577 -63.2304,-67.4987 -68.7626,-107.5041 -7.0448,-50.9428 7.8576,-83.8835 62.701,-132.8166 32.087,-28.6289 -112.8783,-18.98 -115.6494,-122.3538 z"
         style="fill:#0095d8;fill-rule:evenodd"
         id="path4150"
         inkscape:connector-curvature="0" />
      <g
         id="g4152">
        <g
           id="g4154">
          <path
             d="m 255.8526,358.0683 6.5677,16.5009 -10.7635,5.1584 -8.2453,-15.8044 12.4411,-5.8549 z"
             style="fill:#000200;fill-rule:evenodd"
             id="path4156"
             inkscape:connector-curvature="0" />
          <path
             d="m 257.5737,362.6934 -11.7043,5.7218 -1.502,-3.0247 12.0445,-5.7045 1.1618,3.0074 z"
             style="fill:#ffffff;fill-rule:evenodd"
             id="path4158"
             inkscape:connector-curvature="0" />
          <path
             d="m 259.4114,367.2342 -11.3299,5.5247 -1.5772,-3.0729 11.6257,-5.6649 1.2814,3.2131 z"
             style="fill:#ffffff;fill-rule:evenodd"
             id="path4160"
             inkscape:connector-curvature="0" />
          <path
             d="m 261.4389,372.1034 -10.9966,5.1988 -1.5537,-3.0507 11.2251,-5.3962 1.3252,3.2481 z"
             style="fill:#ffffff;fill-rule:evenodd"
             id="path4162"
             inkscape:connector-curvature="0" />
          <g
             id="g4164">
            <path
               d="m 275.8831,416.3336 c 0,0 -5.2177,-12.5776 -5.1916,-23.4679 0.0551,-22.9864 -20.0551,-18.2064 -18.2285,-5.004 1.4844,10.7287 26.5754,32.747 24.9979,30.6096 l -1.5778,-2.1377 z"
               style="fill:#000200;fill-rule:evenodd"
               id="path4166"
               inkscape:connector-curvature="0" />
            <path
               d="m 271.8785,402.9313 c -0.7028,-2.9742 -1.2441,-5.9685 -1.1151,-9.1704 0.0637,-1.584 -0.5442,-1.0059 -1.3281,-0.9342 -0.7839,0.0718 -1.1204,0.55 -1.1204,0.55 0,0 -0.2421,1.0214 -0.738,1.3874 -1.8554,1.3693 -2.8707,-1.4634 -4.4222,-0.4901 -1.9782,1.2411 -1.1111,5.0444 -3.8375,0.7971 -0.9265,-1.4435 -0.9162,-0.5146 -2.1206,0.5107 -0.348,0.2963 -1.8741,-0.854 -1.8741,-0.854 1.0577,1.9652 5.7709,7.9893 10.9181,13.3726 5.6535,5.9128 11.7116,11.0985 11.2203,10.3709 -2.9845,-4.4191 -4.384,-10.4686 -5.5824,-15.54 z"
               style="fill:#e30016;fill-rule:evenodd"
               id="path4168"
               inkscape:connector-curvature="0" />
          </g>
          <path
             d="m 242.3009,363.3558 c -5.5023,-9.5483 -11.5523,-21.1585 -17.5314,-33.8634 -16.5448,-35.1554 -26.292,-65.3924 -21.7664,-67.5222 4.5254,-2.1298 21.6126,24.6529 38.1573,59.8083 5.9792,12.7049 11.0696,24.7667 14.9203,35.0923 l -13.7798,6.485 z"
             style="fill:#451910;fill-rule:evenodd"
             id="path4170"
             inkscape:connector-curvature="0" />
        </g>
        <path
           d="m 243.5251,357.9087 c -4.5598,-8.4636 -9.703,-18.6804 -14.9293,-29.7856 -14.4617,-30.7292 -24.0916,-56.6368 -21.5045,-57.8543 2.587,-1.2175 16.4129,22.7154 30.8745,53.4446 5.2264,11.1052 9.821,21.5801 13.4366,30.4881 l -7.8773,3.7072 z"
           style="fill:#000200;fill-rule:evenodd"
           id="path4172"
           inkscape:connector-curvature="0" />
      </g>
      <path
         d="m 448.1603,426.155 c -1.7378,44.8062 -59.7938,80.8047 -131.1332,80.8047 -69.2233,0 -125.9352,-33.8955 -130.8265,-76.8425 23.3955,27.5516 72.5544,46.535 129.4059,46.535 59.5392,0 110.6464,-20.8189 132.5538,-50.4972 z"
         style="fill:#cf6d21;fill-rule:evenodd"
         id="path4174"
         inkscape:connector-curvature="0" />
      <path
         d="M 239.1826,656.0521 C 141.6244,655.2669 102.0595,500.3995 186.2004,430.117 135.027,503.1976 157.0272,646.1441 239.1826,656.0521 Z"
         style="fill:#000200;fill-rule:evenodd;stroke:#000000;stroke-width:0.2;stroke-dasharray:none"
         id="path4176"
         inkscape:connector-curvature="0" />
      <path
         d="m 397.8417,656.4838 c 97.5581,-0.7852 137.123,-155.6526 52.9821,-225.9351 51.1735,73.0807 29.1733,216.0271 -52.9821,225.9351 z"
         style="fill:#000200;fill-rule:evenodd;stroke:#000000;stroke-width:0.2;stroke-dasharray:none"
         id="path4178"
         inkscape:connector-curvature="0" />
      <path
         d="m 236.5324,468.4143 a 7.4875,7.1472 0 0 1 7.4876,7.1472 7.4875,7.1472 0 1 1 -7.4876,-7.1472 z"
         style="fill:#ffffff;fill-rule:evenodd;stroke:#1b1918;stroke-width:4;stroke-linecap:butt;stroke-linejoin:miter;stroke-dasharray:none"
         id="path4180"
         inkscape:connector-curvature="0" />
      <path
         d="m 274.725,480.1904 a 7.4875,7.1472 0 0 1 7.4876,7.1472 7.4875,7.1472 0 1 1 -7.4876,-7.1472 z"
         style="fill:#ffffff;fill-rule:evenodd;stroke:#1b1918;stroke-width:4;stroke-linecap:butt;stroke-linejoin:miter;stroke-dasharray:none"
         id="path4182"
         inkscape:connector-curvature="0" />
      <path
         d="m 316.1143,485.5017 a 7.4875,7.1472 0 0 1 7.4876,7.1472 7.4875,7.1472 0 1 1 -7.4876,-7.1472 z"
         style="fill:#ffffff;fill-rule:evenodd;stroke:#1b1918;stroke-width:4;stroke-linecap:butt;stroke-linejoin:miter;stroke-dasharray:none"
         id="path4184"
         inkscape:connector-curvature="0" />
      <path
         d="m 357.5036,483.6659 a 7.4875,7.1472 0 0 1 7.4876,7.1472 7.4875,7.1472 0 1 1 -7.4876,-7.1472 z"
         style="fill:#ffffff;fill-rule:evenodd;stroke:#1b1918;stroke-width:4;stroke-linecap:butt;stroke-linejoin:miter;stroke-dasharray:none"
         id="path4186"
         inkscape:connector-curvature="0" />
      <path
         d="m 396.6231,467.9508 a 7.4875,7.1472 0 0 1 7.4875,7.1472 7.4875,7.1472 0 1 1 -7.4875,-7.1472 z"
         style="fill:#ffffff;fill-rule:evenodd;stroke:#1b1918;stroke-width:4;stroke-linecap:butt;stroke-linejoin:miter;stroke-dasharray:none"
         id="path4188"
         inkscape:connector-curvature="0" />
      <path
         d="m 427.4954,452.7066 a 5.2714,5.0317 0 0 1 5.2714,5.0317 5.2714,5.0317 0 1 1 -5.2714,-5.0317 z"
         style="fill:#ffffff;fill-rule:evenodd;stroke:#1b1918;stroke-width:4;stroke-linecap:butt;stroke-linejoin:miter;stroke-dasharray:none"
         id="path4190"
         inkscape:connector-curvature="0" />
      <path
         d="m 209.7976,453.6614 a 5.2714,5.0317 0 0 1 5.2714,5.0317 5.2714,5.0317 0 1 1 -5.2714,-5.0317 z"
         style="fill:#ffffff;fill-rule:evenodd;stroke:#1b1918;stroke-width:4;stroke-linecap:butt;stroke-linejoin:miter;stroke-dasharray:none"
         id="path4192"
         inkscape:connector-curvature="0" />
      <path
         d="m 271.8547,501.9127 19.2936,3.434 c 0,0 -6.5978,41.0908 -9.3835,75.0763 -2.7857,33.9856 -3.3429,33.9856 -3.3429,33.9856 l -6.5672,-112.4959 z"
         style="fill:#ffce00;fill-rule:evenodd"
         id="path4194"
         inkscape:connector-curvature="0" />
      <path
         d="m 300.2598,145.1588 c 32.131,-27.8152 47.6675,-64.8888 47.6675,-64.8888 9.7385,6.9017 -4.0965,79.12 -64.2428,95.9477 -49.1764,13.7584 -32.9307,44.8872 -6.6782,45.7511 40.2066,1.3231 93.8426,26.4898 84.5664,94.2353 -4.5686,33.3642 -57.128,107.1898 -111.061,141.931 -0.85,0.5474 48.7943,-61.522 59.1444,-82.9099 21.5689,-44.5713 28.8778,-98.9364 -18.5488,-119.8145 -54.0406,-23.7899 -41.2351,1.9738 -57.3236,-63.9892 11.0585,-9.811 33.9875,-18.1379 66.4761,-46.2627 z"
         style="fill:#e30079;fill-rule:evenodd"
         id="path4196"
         inkscape:connector-curvature="0" />
      <path
         d="m 361.3013,502.1658 -19.2936,3.4339 c 0,0 6.5978,41.0908 9.3835,75.0764 2.7857,33.9856 3.3428,33.9856 3.3428,33.9856 l 6.5673,-112.4959 z"
         style="fill:#e30016;fill-rule:evenodd"
         id="path4198"
         inkscape:connector-curvature="0" />
      <path
         d="m 229.4287,50.8897 5.3144,53.2855 18.6869,-46.9369 c 0,0 -6.628,9.1028 -11.9153,12.8158 -5.6152,3.9433 -10.1696,-15.9615 -12.086,-19.1644 z"
         style="fill:#ffcb00;fill-rule:evenodd"
         id="path4200"
         inkscape:connector-curvature="0" />
      <path
         d="m 240.719,59.9875 a 3.7498,4.3012 -15.5956 0 1 3.2295,5.0601 3.7498,4.3012 -15.5956 1 1 -3.2295,-5.0601 z"
         style="fill:#000200;fill-rule:evenodd"
         id="path4202"
         inkscape:connector-curvature="0" />
      <path
         d="m 254.4026,57.3032 -18.9436,47.2416 37.5553,-27.9246 c 0,0 -9.966,3.656 -16.3385,3.6338 -6.7677,-0.0237 -1.9857,-19.1757 -2.2732,-22.9508 z"
         style="fill:#e30024;fill-rule:evenodd"
         id="path4204"
         inkscape:connector-curvature="0" />
      <g
         id="g4206">
        <path
           d="m 320.638,632.3959 0.006,17.025 c -2.9846,-0.0123 -5.6226,-0.128 -5.6251,-0.5172 -0.0265,-3.9858 -3.5614,-14.1306 -7.1201,-16.2556 5.6651,-6.9364 10.3878,-18.9147 11.8829,-28.1999 -0.1022,-0.2123 -0.1622,-0.4642 -0.1623,-0.7345 -2e-4,-0.6729 0.3665,-1.2325 0.8498,-1.349 l 0.0103,30.0313 0.1586,-10e-5 z m 0.2178,-30.0278 c 0.4765,0.1235 0.8367,0.6785 0.8369,1.3449 10e-5,0.2797 -0.0636,0.5396 -0.1724,0.7567 1.5064,9.28 6.2333,21.2381 11.8975,28.1637 -3.5573,2.1276 -7.0852,12.2747 -7.109,16.2606 -0.002,0.3892 -2.6401,0.5066 -5.6247,0.521 l -0.006,-17.0191 0.1877,-10e-5 -0.0102,-30.0277 z"
           style="fill:#423b4c;fill-rule:evenodd"
           id="path4208"
           inkscape:connector-curvature="0" />
        <path
           d="m 320.6708,631.9179 a 1.3905,1.4943 0 0 1 1.391,1.4938 1.3905,1.4943 0 1 1 -1.391,-1.4938 z"
           style="fill:#ffffff;fill-rule:evenodd"
           id="path4210"
           inkscape:connector-curvature="0" />
      </g>
      <path
         d="m 260.4406,71.4512 a 3.7081,4.3496 -16.1505 0 1 0.6345,6.0823 3.7081,4.3496 -16.1505 1 1 -0.6345,-6.0823 z"
         style="fill:#000200;fill-rule:evenodd"
         id="path4212"
         inkscape:connector-curvature="0" />
      <path
         d="M 316.3848,654.3578 C 286.2438,630.7739 232.1259,623.623 198.2555,636.9957 l 4.8753,-8.886 c 33.2179,-9.4176 87.7594,0.6186 114.5621,25.4521 -0.3748,0.1891 -0.9734,0.5484 -1.3081,0.796 z m 1.3188,-0.7778 C 290.4749,627.1735 240.7104,615.9301 204.4055,625.7858 l 3.9952,-7.2834 c 34.9165,-8.0336 87.859,6.9591 110.5829,34.2055 C 295.5671,623.1481 245.9325,609.7841 209.221,617.009 l 3.8138,-6.9532 c 27.8126,-4.838 65.6647,4.6908 90.2065,23.6096 -24.72,-20.4438 -61.2025,-29.1693 -89.7102,-24.5135 l 3.637,-6.6282 c 33.918,-4.8005 85.4479,13.5419 103.4083,46.9954 18.0058,-33.3948 69.4726,-51.6947 103.3601,-46.8989 l 3.637,6.6276 c -28.5485,-4.6609 -65.0946,4.0956 -89.8162,24.6013 24.5378,-18.9757 62.4601,-28.5436 90.3133,-23.6953 l 3.8131,6.9508 c -36.6829,-7.2176 -86.2668,6.1199 -109.7049,35.631 l 5e-4,6e-4 c 22.7543,-27.2015 75.637,-42.1622 110.5257,-34.1352 l 3.9942,7.281 c -36.2203,-9.8327 -85.8509,1.3257 -113.1218,27.5983 -0.8695,-0.3616 -1.8231,-0.5622 -2.8234,-0.5622 -1.0885,0 -2.1214,0.2372 -3.0504,0.6619 z m 5.8895,-0.1269 c 26.8727,-24.6933 81.2483,-34.6419 114.3807,-25.2454 l 4.8762,8.8842 c -33.7743,-13.3335 -87.69,-6.2694 -117.8818,17.1535 -0.3534,-0.2477 -0.98,-0.6091 -1.3751,-0.7923 z"
         style="fill:#102a83;fill-rule:evenodd"
         id="path4214"
         inkscape:connector-curvature="0" />
      <path
         d="m 205.946,60.0172 28.0899,44.4738 -5.3906,-52.8632 c 0,0 -1.4423,12.0117 -4.1704,18.4247 -2.8972,6.8107 -15.5179,-8.2975 -18.5289,-10.0353 z"
         style="fill:none"
         id="path4216"
         inkscape:connector-curvature="0" />
      <path
         d="m 219.3408,61.5286 a 3.7616,4.2877 -10.9821 0 1 4.924,2.6273 3.7616,4.2877 -10.9821 1 1 -4.924,-2.6273 z"
         style="fill:#000200;fill-rule:evenodd"
         id="path4218"
         inkscape:connector-curvature="0" />
      <path
         d="m 187.2871,110.0052 45.9752,-4.4829 -42.7602,-22.9144 c 0,0 8.5836,7.8972 12.335,14.0886 3.9841,6.5754 -12.9411,11.2034 -15.55,13.3087 z"
         style="fill:#a4027c;fill-rule:evenodd"
         id="path4220"
         inkscape:connector-curvature="0" />
      <path
         d="m 194.1314,97.3039 a 3.6901,4.3708 -9.8903 0 1 4.1021,-3.558 3.6901,4.3708 -9.8903 1 1 -4.1021,3.558 z"
         style="fill:#000200;fill-rule:evenodd"
         id="path4222"
         inkscape:connector-curvature="0" />
      <path
         d="m 190.4646,81.4918 43.0508,23.2187 -27.9996,-44.0246 c 0,0 4.1547,11.5682 4.7523,18.8932 0.6347,7.7792 -16.5377,1.6975 -19.8035,1.9127 z"
         style="fill:#009ee0;fill-rule:evenodd"
         id="path4224"
         inkscape:connector-curvature="0" />
      <path
         d="m 202.2235,74.9825 a 3.728,4.3264 -8.1836 0 1 5.2452,-0.5437 3.728,4.3264 -8.1836 1 1 -5.2452,0.5437 z"
         style="fill:#000200;fill-rule:evenodd"
         id="path4226"
         inkscape:connector-curvature="0" />
      <path
         d="m 349.6724,24.4161 -1.5428,53.5276 -21.9509,-45.5021 c 0,0 7.2535,8.6127 12.7896,11.9435 5.8793,3.5374 9.0184,-16.639 10.7041,-19.969 z"
         style="fill:#ffcb00;fill-rule:evenodd"
         id="path4228"
         inkscape:connector-curvature="0" />
      <path
         d="m 339.0519,34.2875 a 3.7498,4.3012 11.5511 0 0 -2.8645,5.2753 3.7498,4.3012 11.5511 1 0 2.8645,-5.2753 z"
         style="fill:#000200;fill-rule:evenodd"
         id="path4230"
         inkscape:connector-curvature="0" />
      <path
         d="m 325.2131,32.575 22.2284,45.7878 -39.4314,-25.2062 c 0,0 10.1991,2.944 16.5542,2.4723 6.7491,-0.5009 0.6283,-19.268 0.6488,-23.0539 z"
         style="fill:#b1c900;fill-rule:evenodd"
         id="path4232"
         inkscape:connector-curvature="0" />
      <path
         d="m 320.1879,47.1136 a 3.7081,4.3496 12.106 0 0 -0.2038,6.1119 3.7081,4.3496 12.106 1 0 0.2038,-6.1119 z"
         style="fill:#000200;fill-rule:evenodd"
         id="path4234"
         inkscape:connector-curvature="0" />
      <path
         d="m 373.7404,31.8645 -24.8832,46.3443 1.6487,-53.1118 c 0,0 2.2859,11.8801 5.4595,18.0847 3.3704,6.5894 14.8941,-9.3713 17.775,-11.3172 z"
         style="fill:#102a83;fill-rule:evenodd"
         id="path4236"
         inkscape:connector-curvature="0" />
      <path
         d="m 360.4856,34.3169 a 3.7616,4.2877 6.9376 0 0 -4.7265,2.968 3.7616,4.2877 6.9376 1 0 4.7265,-2.968 z"
         style="fill:#000200;fill-rule:evenodd"
         id="path4238"
         inkscape:connector-curvature="0" />
      <path
         d="m 395.8785,80.412 -46.1768,-1.2291 41.0375,-25.8732 c 0,0 -8.0053,8.4829 -11.3106,14.9235 -3.5104,6.84 13.6991,10.2628 16.4499,12.1788 z"
         style="fill:#5bc3cd;fill-rule:evenodd"
         id="path4240"
         inkscape:connector-curvature="0" />
      <path
         d="m 388.1554,68.2251 a 3.6901,4.3708 5.8459 0 0 -4.3428,-3.2598 3.6901,4.3708 5.8459 1 0 4.3428,3.2598 z"
         style="fill:#000200;fill-rule:evenodd"
         id="path4242"
         inkscape:connector-curvature="0" />
      <path
         d="M 390.6979,52.1938 349.392,78.391 374.2167,32.5012 c 0,0 -3.3285,11.8325 -3.4079,19.1813 -0.0845,7.8046 16.6163,0.5269 19.8891,0.5113 z"
         style="fill:#f07c00;fill-rule:evenodd"
         id="path4244"
         inkscape:connector-curvature="0" />
      <path
         d="m 378.5092,46.53 a 3.728,4.3264 4.1392 0 0 -5.2705,-0.1724 3.728,4.3264 4.1392 1 0 5.2705,0.1724 z"
         style="fill:#000200;fill-rule:evenodd"
         id="path4246"
         inkscape:connector-curvature="0" />
      <text
         x="339.00491"
         y="449.9444"
         id="text4248">
        <tspan
           font-size="32.0000"
           id="tspan4250"
           style="font-size:32px;font-family:ML-TTKarthika;fill:#000200">þmaXv</tspan>
      </text>
      <text
         xml:space="preserve"
         style="font-style:normal;font-weight:normal;font-size:52.533535px;line-height:125%;font-family:sans-serif;letter-spacing:0px;word-spacing:0px;fill:#00bcce;fill-opacity:1;stroke:none;stroke-width:1px;stroke-linecap:butt;stroke-linejoin:miter;stroke-opacity:1"
         x="181.22638"
         y="892.79626"
         id="text4195"
         sodipodi:linespacing="125%"
         transform="scale(1.3133384,0.7614184)"><tspan
           sodipodi:role="line"
           id="tspan4197"
           x="181.22638"
           y="892.79626"
           style="font-style:normal;font-variant:normal;font-weight:bold;font-stretch:normal;font-size:65.66691589px;font-family:Keraleeyam;-inkscape-font-specification:'Keraleeyam Bold';fill:#00bcce;fill-opacity:1">കേരള</tspan></text>
      <text
         xml:space="preserve"
         style="font-style:normal;font-weight:normal;font-size:49.35829926px;line-height:125%;font-family:sans-serif;letter-spacing:0px;word-spacing:0px;fill:#6100a2;fill-opacity:1;stroke:none;stroke-width:1px;stroke-linecap:butt;stroke-linejoin:miter;stroke-opacity:1"
         x="82.179939"
         y="883.07977"
         id="text4203"
         sodipodi:linespacing="125%"
         transform="scale(1.2339574,0.81040074)"><tspan
           sodipodi:role="line"
           id="tspan4205"
           x="82.179939"
           y="883.07977"
           style="font-style:normal;font-variant:normal;font-weight:bold;font-stretch:normal;font-size:61.69786835px;font-family:Keraleeyam;-inkscape-font-specification:'Keraleeyam Bold';fill:#6100a2;fill-opacity:1">സ്‌കൂള്‍ കലോത്സവം</tspan><tspan
           sodipodi:role="line"
           x="82.179939"
           y="960.20209"
           style="font-style:normal;font-variant:normal;font-weight:bold;font-stretch:normal;font-size:81.74967957px;font-family:Keraleeyam;-inkscape-font-specification:'Keraleeyam Bold';fill:#6100a2;fill-opacity:1"
           id="tspan4207" /></text>
      <text
         xml:space="preserve"
         style="font-style:normal;font-weight:normal;font-size:40px;line-height:125%;font-family:sans-serif;letter-spacing:0px;word-spacing:0px;fill:#000000;fill-opacity:1;stroke:none;stroke-width:1px;stroke-linecap:butt;stroke-linejoin:miter;stroke-opacity:1"
         x="176.73691"
         y="746.52325"
         id="text4209"
         sodipodi:linespacing="125%"><tspan
           sodipodi:role="line"
           id="tspan4211"
           x="176.73691"
           y="746.52325"
           style="font-style:normal;font-variant:normal;font-weight:bold;font-stretch:normal;font-size:27.5px;font-family:Manjari;-inkscape-font-specification:'Manjari Bold'">2017 ജനുവരി 16-22</tspan></text>
      <text
         xml:space="preserve"
         style="font-style:normal;font-weight:normal;font-size:53.09119034px;line-height:125%;font-family:sans-serif;letter-spacing:0px;word-spacing:0px;fill:#ff2a2a;fill-opacity:1;stroke:none;stroke-width:1px;stroke-linecap:butt;stroke-linejoin:miter;stroke-opacity:1"
         x="182.42484"
         y="1030.7083"
         id="text4213"
         sodipodi:linespacing="125%"
         transform="scale(1.3272797,0.7534207)"><tspan
           sodipodi:role="line"
           id="tspan4215"
           x="182.42484"
           y="1030.7083"
           style="font-style:normal;font-variant:normal;font-weight:bold;font-stretch:normal;font-family:Keraleeyam;-inkscape-font-specification:'Keraleeyam Bold';fill:#ff2a2a">കണ്ണൂര്‍</tspan></text>
    </g>
  </a>
</svg>
